<svg id="Layer_1" data-name="Layer 1" xmlns="http://www.w3.org/2000/svg" viewBox="0 0 512 512"><title>megaphone</title><path d="M256,512,32,384V128L256,0,480,128V384ZM39.88,379.43,256,502.9,472.12,379.43V132.57L256,9.1,39.88,132.57Z" fill="#231f20"/><path d="M352,249.93a22.31,22.31,0,0,0-20.32-22.19c-1-30.56-3.66-50.65-3.71-51l-1.37-10-5.86,8.2c-.3.43-31,42.33-96.74,42.33H182.29c-.22,0-22.29.38-22.29,33.13,0,20.79,10.23,27.57,16.84,29.78,2.78,7.42,15.17,41.57,15.17,61.08v4h53.2l-6.27-6.73a117.76,117.76,0,0,1-19.25-30.84c-5.56-13-5.17-22.23-4.51-26.43H224c65.57,0,96.45,41.91,96.75,42.33l6,8.37L328,321.73c2-17.23,3.16-34,3.69-49.61A22.32,22.32,0,0,0,352,249.93ZM212.32,310.83a129.61,129.61,0,0,0,15.26,26.43H199.87c-1.2-18.54-10-44.73-14.11-56h21.32C206.38,287.07,206.54,297.29,212.32,310.83ZM220,273.26H182.29c-.59,0-14.29-.26-14.29-22.86,0-24.48,13.75-25.12,14.29-25.13H220Zm101,38.41c-12.12-12.59-42.17-37.13-93-38.37V225.21c50.89-1.23,80.94-25.8,93.05-38.39A652.1,652.1,0,0,1,321,311.68ZM331.88,264c.21-10,.19-19.41,0-28.14a14.23,14.23,0,0,1,0,28.14Z" fill="#231f20"/></svg>